<svg width="35" height="40" viewBox="0 0 35 40" fill="none" xmlns="http://www.w3.org/2000/svg">
<path d="M25.9769 22.198C26.2772 22.198 26.5746 22.2572 26.8521 22.3721C27.1296 22.487 27.3817 22.6555 27.5941 22.8679C27.8065 23.0803 27.975 23.3324 28.0899 23.6099C28.2048 23.8874 28.264 24.1848 28.264 24.4851V25.4051C28.2641 25.9545 28.1455 26.4975 27.9162 26.9969C27.6869 27.4962 27.3523 27.9401 26.9354 28.298C25.3436 29.6642 23.0666 30.33 20.129 30.33C17.1913 30.33 14.9163 29.6632 13.3275 28.297C12.9113 27.9393 12.5771 27.4959 12.348 26.9971C12.1189 26.4983 12.0002 25.956 12 25.4071V24.4841C12.0003 23.8777 12.2414 23.2962 12.6702 22.8675C13.0991 22.4388 13.6807 22.198 14.2871 22.198H25.9769ZM20.0253 10.0081L20.129 10C20.3132 10 20.4912 10.0667 20.63 10.1878C20.7689 10.3089 20.8592 10.4762 20.8842 10.6587L20.8913 10.7624V11.5247H24.4491C25.0557 11.5247 25.6374 11.7657 26.0663 12.1946C26.4952 12.6236 26.7362 13.2053 26.7362 13.8119V18.3912C26.7362 18.9978 26.4952 19.5795 26.0663 20.0084C25.6374 20.4374 25.0557 20.6783 24.4491 20.6783H15.8088C15.2022 20.6783 14.6205 20.4374 14.1916 20.0084C13.7627 19.5795 13.5217 18.9978 13.5217 18.3912V13.8119C13.5217 13.2053 13.7627 12.6236 14.1916 12.1946C14.6205 11.7657 15.2022 11.5247 15.8088 11.5247H19.3666V10.7634C19.3666 10.5792 19.4333 10.4012 19.5544 10.2623C19.6755 10.1235 19.8428 10.0332 20.0253 10.0081ZM17.8418 14.5743C17.5048 14.5743 17.1816 14.7081 16.9434 14.9464C16.7051 15.1847 16.5712 15.5079 16.5712 15.8449C16.5712 16.1819 16.7051 16.5051 16.9434 16.7433C17.1816 16.9816 17.5048 17.1155 17.8418 17.1155C18.1788 17.1155 18.502 16.9816 18.7403 16.7433C18.9786 16.5051 19.1124 16.1819 19.1124 15.8449C19.1124 15.5079 18.9786 15.1847 18.7403 14.9464C18.502 14.7081 18.1788 14.5743 17.8418 14.5743ZM22.409 14.5743C22.2391 14.5694 22.0701 14.5987 21.9118 14.6604C21.7535 14.7221 21.6092 14.8149 21.4874 14.9333C21.3655 15.0517 21.2687 15.1933 21.2026 15.3498C21.1365 15.5063 21.1024 15.6745 21.1024 15.8444C21.1024 16.0143 21.1365 16.1824 21.2026 16.3389C21.2687 16.4954 21.3655 16.637 21.4874 16.7555C21.6092 16.8739 21.7535 16.9667 21.9118 17.0283C22.0701 17.09 22.2391 17.1193 22.409 17.1145C22.7396 17.1051 23.0535 16.9672 23.2841 16.73C23.5147 16.4929 23.6436 16.1751 23.6436 15.8444C23.6436 15.5136 23.5147 15.1959 23.2841 14.9587C23.0535 14.7215 22.7396 14.5836 22.409 14.5743Z" fill="white"/>
</svg>
