<svg width="35" height="35" viewBox="0 0 35 35" fill="none" xmlns="http://www.w3.org/2000/svg">
<path d="M13.8677 20.2437L14.5356 23.1382L5.03467 29.0776L10.9731 19.5747L13.8677 20.2437ZM29.0767 29.0776L19.5737 23.1382L20.2427 20.2437L23.1372 19.5747L29.0767 29.0776ZM14.5347 10.9741L13.8677 13.8687L10.9722 14.5366L5.03467 5.03564L14.5347 10.9741ZM23.1382 14.5366L20.2427 13.8687L19.5747 10.9741L29.0767 5.03564L23.1382 14.5366Z" fill="#784CF6"/>
<path d="M13.8677 20.2437L14.1113 20.1874L14.0762 20.0352L13.924 20.0001L13.8677 20.2437ZM14.5356 23.1382L14.6682 23.3502L14.8193 23.2557L14.7792 23.082L14.5356 23.1382ZM5.03467 29.0776L4.82266 28.9452L5.16719 29.2896L5.03467 29.0776ZM10.9731 19.5747L11.0294 19.3311L10.8557 19.291L10.7611 19.4422L10.9731 19.5747ZM29.0767 29.0776L28.9442 29.2896L29.2887 28.9451L29.0767 29.0776ZM19.5737 23.1382L19.3302 23.0819L19.29 23.2557L19.4412 23.3502L19.5737 23.1382ZM20.2427 20.2437L20.1864 20.0001L20.0343 20.0352L19.9991 20.1874L20.2427 20.2437ZM23.1372 19.5747L23.3492 19.4422L23.2547 19.291L23.0809 19.3311L23.1372 19.5747ZM14.5347 10.9741L14.7783 11.0303L14.8183 10.8566L14.6672 10.7621L14.5347 10.9741ZM13.8677 13.8687L13.9239 14.1123L14.0762 14.0771L14.1113 13.9248L13.8677 13.8687ZM10.9722 14.5366L10.7602 14.6691L10.8546 14.8203L11.0284 14.7802L10.9722 14.5366ZM5.03467 5.03564L5.16718 4.82365L4.82266 5.16813L5.03467 5.03564ZM23.1382 14.5366L23.082 14.7802L23.2557 14.8203L23.3502 14.6691L23.1382 14.5366ZM20.2427 13.8687L19.9991 13.9249L20.0342 14.0771L20.1865 14.1123L20.2427 13.8687ZM19.5747 10.9741L19.4422 10.7621L19.291 10.8566L19.3311 11.0303L19.5747 10.9741ZM29.0767 5.03564L29.2887 5.16815L28.9442 4.82364L29.0767 5.03564ZM13.8677 20.2437L13.6241 20.2999L14.292 23.1944L14.5356 23.1382L14.7792 23.082L14.1113 20.1874L13.8677 20.2437ZM14.5356 23.1382L14.4031 22.9262L4.90215 28.8657L5.03467 29.0776L5.16719 29.2896L14.6682 23.3502L14.5356 23.1382ZM5.03467 29.0776L5.24668 29.2101L11.1852 19.7072L10.9731 19.5747L10.7611 19.4422L4.82266 28.9452L5.03467 29.0776ZM10.9731 19.5747L10.9169 19.8183L13.8114 20.4872L13.8677 20.2437L13.924 20.0001L11.0294 19.3311L10.9731 19.5747ZM29.0767 29.0776L29.2092 28.8656L19.7062 22.9262L19.5737 23.1382L19.4412 23.3502L28.9442 29.2896L29.0767 29.0776ZM19.5737 23.1382L19.8173 23.1945L20.4863 20.2999L20.2427 20.2437L19.9991 20.1874L19.3302 23.0819L19.5737 23.1382ZM20.2427 20.2437L20.299 20.4872L23.1935 19.8183L23.1372 19.5747L23.0809 19.3311L20.1864 20.0001L20.2427 20.2437ZM23.1372 19.5747L22.9252 19.7072L28.8647 29.2101L29.0767 29.0776L29.2887 28.9451L23.3492 19.4422L23.1372 19.5747ZM14.5347 10.9741L14.2911 10.918L13.6241 13.8125L13.8677 13.8687L14.1113 13.9248L14.7783 11.0303L14.5347 10.9741ZM13.8677 13.8687L13.8115 13.6251L10.916 14.293L10.9722 14.5366L11.0284 14.7802L13.9239 14.1123L13.8677 13.8687ZM10.9722 14.5366L11.1842 14.4041L5.24667 4.90315L5.03467 5.03564L4.82266 5.16813L10.7602 14.6691L10.9722 14.5366ZM5.03467 5.03564L4.90215 5.24763L14.4022 11.1861L14.5347 10.9741L14.6672 10.7621L5.16718 4.82365L5.03467 5.03564ZM23.1382 14.5366L23.1944 14.293L20.2989 13.6251L20.2427 13.8687L20.1865 14.1123L23.082 14.7802L23.1382 14.5366ZM20.2427 13.8687L20.4863 13.8124L19.8183 10.9179L19.5747 10.9741L19.3311 11.0303L19.9991 13.9249L20.2427 13.8687ZM19.5747 10.9741L19.7072 11.1861L29.2092 5.24765L29.0767 5.03564L28.9442 4.82364L19.4422 10.7621L19.5747 10.9741ZM29.0767 5.03564L28.8647 4.90314L22.9262 14.4041L23.1382 14.5366L23.3502 14.6691L29.2887 5.16815L29.0767 5.03564Z" fill="#7B51FC"/>
<path d="M11.1903 14.4855C11.2522 14.8364 11.3834 15.1929 11.6011 15.5414C12.1804 16.4683 12.1804 17.6445 11.6011 18.5714C11.3839 18.919 11.2524 19.2745 11.1903 19.6245L0.0560992 17.0557L11.1903 14.4855ZM17.0564 34.056L14.4869 22.9211C14.8371 22.8591 15.1929 22.7283 15.5406 22.5109C16.4676 21.9317 17.6437 21.9318 18.5707 22.5109C18.9188 22.7285 19.2753 22.8591 19.6258 22.9211L17.0564 34.056ZM19.6258 11.1903C19.2752 11.2523 18.9189 11.3842 18.5707 11.6019C17.6437 12.1811 16.4676 12.1811 15.5406 11.6019C15.1923 11.3842 14.8362 11.2523 14.4855 11.1903L17.0557 0.0561523L19.6258 11.1903ZM22.9211 19.6245C22.8589 19.2745 22.7274 18.919 22.5102 18.5714C21.931 17.6445 21.931 16.4683 22.5102 15.5414C22.728 15.1929 22.8592 14.8364 22.9211 14.4855L34.0559 17.0564L22.9211 19.6245Z" fill="#784CF6"/>
<path d="M11.1903 14.4855L11.4365 14.4421L11.3907 14.1827L11.134 14.242L11.1903 14.4855ZM11.6011 15.5414L11.8131 15.4089L11.8131 15.4089L11.6011 15.5414ZM11.6011 18.5714L11.8131 18.7039L11.8131 18.7039L11.6011 18.5714ZM11.1903 19.6245L11.1341 19.8681L11.3905 19.9273L11.4364 19.6682L11.1903 19.6245ZM0.0560992 17.0557L-0.000131112 16.8121L-0.000102379 17.2993L0.0560992 17.0557ZM17.0564 34.056L16.8128 34.1122H17.3L17.0564 34.056ZM14.4869 22.9211L14.4433 22.6749L14.1841 22.7209L14.2433 22.9773L14.4869 22.9211ZM15.5406 22.5109L15.4081 22.2989L15.4081 22.2989L15.5406 22.5109ZM18.5707 22.5109L18.7032 22.2989L18.7032 22.2989L18.5707 22.5109ZM19.6258 22.9211L19.8694 22.9773L19.9286 22.7208L19.6694 22.6749L19.6258 22.9211ZM19.6258 11.1903L19.6693 11.4365L19.9287 11.3907L19.8694 11.1341L19.6258 11.1903ZM18.5707 11.6019L18.7032 11.8139L18.7032 11.8139L18.5707 11.6019ZM15.5406 11.6019L15.4081 11.8139L15.4081 11.8139L15.5406 11.6019ZM14.4855 11.1903L14.2419 11.1341L14.1827 11.3907L14.442 11.4365L14.4855 11.1903ZM17.0557 0.0561523L17.2993 -7.79786e-05H16.8121L17.0557 0.0561523ZM22.9211 19.6245L22.6749 19.6682L22.7209 19.9272L22.9772 19.8681L22.9211 19.6245ZM22.5102 18.5714L22.2982 18.7039L22.2982 18.7039L22.5102 18.5714ZM22.5102 15.5414L22.2982 15.4089L22.2982 15.4089L22.5102 15.5414ZM22.9211 14.4855L22.9773 14.242L22.7206 14.1827L22.6749 14.4421L22.9211 14.4855ZM34.0559 17.0564L34.1121 17.3L34.1122 16.8128L34.0559 17.0564ZM11.1903 14.4855L10.9441 14.529C11.0115 14.9114 11.1543 15.2982 11.3891 15.6739L11.6011 15.5414L11.8131 15.4089C11.6124 15.0877 11.4928 14.7614 11.4365 14.4421L11.1903 14.4855ZM11.6011 15.5414L11.3891 15.6739C11.9177 16.5198 11.9177 17.593 11.3891 18.439L11.6011 18.5714L11.8131 18.7039C12.4431 17.6959 12.4431 16.4169 11.8131 15.4089L11.6011 15.5414ZM11.6011 18.5714L11.3891 18.4389C11.155 18.8135 11.0118 19.1991 10.9441 19.5808L11.1903 19.6245L11.4364 19.6682C11.4929 19.3499 11.6128 19.0245 11.8131 18.7039L11.6011 18.5714ZM11.1903 19.6245L11.2465 19.3809L0.112301 16.8121L0.0560992 17.0557L-0.000102379 17.2993L11.1341 19.8681L11.1903 19.6245ZM0.0560992 17.0557L0.112329 17.2993L11.2465 14.7291L11.1903 14.4855L11.134 14.242L-0.000131112 16.8121L0.0560992 17.0557ZM17.0564 34.056L17.3 33.9998L14.7305 22.8649L14.4869 22.9211L14.2433 22.9773L16.8128 34.1122L17.0564 34.056ZM14.4869 22.9211L14.5305 23.1673C14.9121 23.0997 15.298 22.9574 15.6731 22.7229L15.5406 22.5109L15.4081 22.2989C15.0877 22.4992 14.7621 22.6184 14.4433 22.6749L14.4869 22.9211ZM15.5406 22.5109L15.6731 22.7229C16.519 22.1944 17.5923 22.1944 18.4382 22.723L18.5707 22.5109L18.7032 22.2989C17.6952 21.6691 16.4161 21.669 15.4081 22.2989L15.5406 22.5109ZM18.5707 22.5109L18.4382 22.7229C18.8138 22.9577 19.2005 23.0998 19.5823 23.1673L19.6258 22.9211L19.6694 22.6749C19.35 22.6185 19.0239 22.4994 18.7032 22.2989L18.5707 22.5109ZM19.6258 22.9211L19.3822 22.8649L16.8128 33.9998L17.0564 34.056L17.3 34.1122L19.8694 22.9773L19.6258 22.9211ZM19.6258 11.1903L19.5823 10.9441C19.1998 11.0117 18.8134 11.1554 18.4382 11.3899L18.5707 11.6019L18.7032 11.8139C19.0245 11.6131 19.3505 11.4928 19.6693 11.4365L19.6258 11.1903ZM18.5707 11.6019L18.4382 11.3899C17.5923 11.9184 16.519 11.9185 15.6731 11.3899L15.5406 11.6019L15.4081 11.8139C16.4161 12.4438 17.6952 12.4437 18.7032 11.8139L18.5707 11.6019ZM15.5406 11.6019L15.6731 11.3899C15.2979 11.1554 14.9116 11.0117 14.529 10.9441L14.4855 11.1903L14.442 11.4365C14.7608 11.4928 15.0868 11.613 15.4081 11.8139L15.5406 11.6019ZM14.4855 11.1903L14.7291 11.2466L17.2993 0.112383L17.0557 0.0561523L16.8121 -7.79786e-05L14.2419 11.1341L14.4855 11.1903ZM17.0557 0.0561523L16.8121 0.112383L19.3822 11.2466L19.6258 11.1903L19.8694 11.1341L17.2993 -7.79786e-05L17.0557 0.0561523ZM22.9211 19.6245L23.1672 19.5808C23.0995 19.1992 22.9563 18.8135 22.7222 18.4389L22.5102 18.5714L22.2982 18.7039C22.4985 19.0245 22.6184 19.3499 22.6749 19.6682L22.9211 19.6245ZM22.5102 18.5714L22.7222 18.439C22.1937 17.5931 22.1937 16.5197 22.7222 15.6739L22.5102 15.5414L22.2982 15.4089C21.6684 16.4169 21.6684 17.6959 22.2982 18.7039L22.5102 18.5714ZM22.5102 15.5414L22.7222 15.6739C22.957 15.2982 23.0998 14.9114 23.1673 14.529L22.9211 14.4855L22.6749 14.4421C22.6185 14.7614 22.4989 15.0877 22.2982 15.4089L22.5102 15.5414ZM22.9211 14.4855L22.8648 14.7291L33.9997 17.3L34.0559 17.0564L34.1122 16.8128L22.9773 14.242L22.9211 14.4855ZM34.0559 17.0564L33.9997 16.8128L22.8649 19.3809L22.9211 19.6245L22.9772 19.8681L34.1121 17.3L34.0559 17.0564Z" fill="#7B51FC"/>
</svg>
