<svg width="32" height="32" viewBox="0 0 32 32" fill="none" xmlns="http://www.w3.org/2000/svg">
<path d="M11.9214 10.0392C11.9214 4.49471 16.4161 0 21.9606 0V0C27.5051 0 31.9998 4.49471 31.9998 10.0392L31.9998 12.0471L11.9214 12.0471V10.0392Z" fill="#784CF6"/>
<path d="M21.9608 11.9214C27.5053 11.9214 32 16.4161 32 21.9606V21.9606C32 27.5051 27.5053 31.9998 21.9608 31.9998L19.9529 31.9998L19.9529 11.9214L21.9608 11.9214Z" fill="#784CF6"/>
<path d="M20.0786 21.9608C20.0786 27.5053 15.5839 32 10.0394 32V32C4.49489 32 0.000182713 27.5053 0.000182228 21.9608L0.000182052 19.9529L20.0786 19.9529L20.0786 21.9608Z" fill="#784CF6"/>
<path d="M10.0392 -4.38828e-07C4.49471 -1.9647e-07 1.9647e-07 4.49471 4.38828e-07 10.0392V10.0392C6.81186e-07 15.5837 4.49471 20.0784 10.0392 20.0784L12.0471 20.0784L12.0471 -5.26594e-07L10.0392 -4.38828e-07Z" fill="#784CF6"/>
</svg>
