<svg width="36" height="24" viewBox="0 0 36 24" fill="none" xmlns="http://www.w3.org/2000/svg">
<path d="M35.55 24C31.8221 24 28.8 20.9779 28.8 17.25L28.8 6.75C28.8 3.02208 31.8221 1.77525e-06 35.55 1.6123e-06V1.6123e-06L35.55 24V24Z" fill="#784CF6"/>
<path d="M26.2502 24C19.6228 24 14.2502 18.6274 14.2502 12V12C14.2502 5.37258 19.6228 1.67251e-06 26.2502 1.38281e-06L28.6502 1.2779e-06L28.6502 24L26.2502 24Z" fill="#784CF6"/>
<path d="M12.0002 24C5.37278 24 0.000188783 18.6274 0.000188494 12V12C0.000188204 5.37258 5.37277 1.67251e-06 12.0002 1.38281e-06L14.4002 1.2779e-06L14.4002 24L12.0002 24Z" fill="#784CF6"/>
</svg>
