<svg width="20" height="20" viewBox="0 0 20 20" fill="none" xmlns="http://www.w3.org/2000/svg">
<g clip-path="url(#clip0_444_764)">
<path d="M12.35 8.59062C10.3519 9.61562 8.11501 7.70499 8.81188 5.56999C9.51188 3.43437 12.445 3.21562 13.4513 5.22499C14.0794 6.45812 13.5881 7.96812 12.3506 8.59312L12.35 8.59062ZM9.66813 0.474995C11.725 -0.27313 14.0788 -0.23438 15.84 1.29562C16.2106 1.60124 16.5044 1.99249 16.6925 2.43812C16.8681 3.01062 16.0675 2.37874 15.96 2.29812C15.4031 1.91749 14.8019 1.61124 14.1669 1.38312C10.6969 0.322495 7.41501 2.25562 5.38751 5.26312C4.56063 6.58812 3.92938 8.02749 3.51251 9.53374C3.47313 9.71937 3.41501 9.89875 3.33688 10.0712C3.24626 10.2406 3.29438 9.61187 3.29438 9.59312C3.36938 8.96499 3.49001 8.33999 3.65251 7.72749C4.59313 4.45 6.67688 1.72187 9.66813 0.47187V0.474995ZM9.69751 17.9719V10.6675C9.90563 10.69 10.1006 10.7 10.3094 10.7C11.2569 10.7031 12.1844 10.4425 12.995 9.95437V17.9687C12.995 18.6562 12.8675 19.1606 12.5581 19.4931C12.2488 19.8312 11.81 20.0175 11.3506 20.0006C10.8981 20.0175 10.4625 19.8312 10.1588 19.4931C9.85313 19.1575 9.69376 18.65 9.69376 17.9725L9.69751 17.9719Z" fill="white"/>
</g>
<defs>
<clipPath id="clip0_444_764">
<rect width="20" height="20" fill="white"/>
</clipPath>
</defs>
</svg>
