<svg width="44" height="43" viewBox="0 0 44 43" fill="none" xmlns="http://www.w3.org/2000/svg">
<path d="M34.8789 7.04419L22.3789 19.5442L21.3789 21.0442L37.8789 10.0442L34.8789 7.04419Z" fill="#7B51FC"/>
<path d="M41.296 20.8426L23.6185 20.7696L21.8493 21.1158L41.2785 25.0852L41.296 20.8426Z" fill="#7B51FC"/>
<path d="M10.451 4.80696L20.2955 19.4898L20.9863 21.155L6.92715 7.16964L10.451 4.80696Z" fill="#7B51FC"/>
<path d="M32.0431 37.5744L22.1986 22.8915L21.5078 21.2264L35.567 35.2117L32.0431 37.5744Z" fill="#7B51FC"/>
<path d="M2.48472 17.1026L19.8422 20.4521L21.5109 21.1343L1.68082 21.2684L2.48472 17.1026Z" fill="#7B51FC"/>
<path d="M21.7669 40.3962L21.5756 22.7196L21.2029 20.9558L17.5245 40.4421L21.7669 40.3962Z" fill="#7B51FC"/>
<path d="M25.3421 2.49496L21.8873 19.8318L21.1951 21.4963L21.1813 1.66582L25.3421 2.49496Z" fill="#7B51FC"/>
<path d="M7.97296 34.6343L20.389 22.0509L21.379 20.5443L4.95295 31.6544L7.97296 34.6343Z" fill="#7B51FC"/>
<circle cx="21.3789" cy="21.0442" r="1.5" fill="#7B51FC"/>
</svg>
